<svg xmlns="http://www.w3.org/2000/svg" width="1200" height="1120" viewBox="0 0 1200 1120" role="img" aria-labelledby="title description">
  <title id="title">Real-library undo and redo benchmark</title>
  <desc id="description">Median and p95 update, undo, redo, retained heap, and serialized history measurements for Travels, Travels-backed Coaction history, MobX-State-Tree, mobx-keystone, Redux-undo, and Zundo. Lower values are better.</desc>
  <style>
    text { font-family: Inter, ui-sans-serif, system-ui, -apple-system, BlinkMacSystemFont, "Segoe UI", sans-serif; fill: #111827; }
    .title { font-size: 27px; font-weight: 500; }
    .subtitle { font-size: 14px; fill: #4b5563; }
    .legend { font-size: 13px; fill: #374151; }
    .panel-title { font-size: 17px; font-weight: 500; }
    .panel-note, .axis-label { font-size: 12px; fill: #6b7280; }
    .row-label, .value { font-size: 12px; }
    .value { font-variant-numeric: tabular-nums; fill: #374151; }
    .axis-label.end { text-anchor: end; }
    .section-line, .axis { stroke: #9ca3af; stroke-width: 1; }
    .grid { stroke: #e5e7eb; stroke-width: 1; }
    .p95 { stroke: #111827; stroke-width: 1.5; }
  </style>
  <rect width="1200" height="1120" fill="#ffffff" />
  <text class="title" x="42" y="48">Real-library undo/redo benchmark</text>
  <text class="subtitle" x="42" y="76">96.49KB state · 100 updates · 50 undo/redo · 21 rounds · v24.16.0</text>
  <g transform="translate(42 103)">
    <rect x="0" y="-10" width="18" height="10" rx="2" fill="#2563eb" />
    <text class="legend" x="26" y="0">Travels</text>
    <rect x="112" y="-10" width="18" height="10" rx="2" fill="#7c3aed" />
    <text class="legend" x="138" y="0">Travels integration</text>
    <rect x="288" y="-10" width="18" height="10" rx="2" fill="#0f766e" />
    <text class="legend" x="314" y="0">model-tree patch managers</text>
    <rect x="556" y="-10" width="18" height="10" rx="2" fill="#6b7280" />
    <text class="legend" x="582" y="0">snapshot histories</text>
    <line class="p95" x1="758" y1="-13" x2="758" y2="3" />
    <text class="legend" x="769" y="0">p95 marker</text>
  </g>
  <g><line class="section-line" x1="42" y1="148" x2="579" y2="148" />
<text class="panel-title" x="42" y="173">Record 100 updates</text>
<text class="panel-note" x="42" y="192">median / p95 · ms total · lower is better</text>
<line class="grid" x1="197" y1="202" x2="197" y2="394" />
<line class="grid" x1="320" y1="202" x2="320" y2="394" />
<line class="grid" x1="443" y1="202" x2="443" y2="394" />
<text class="row-label" x="42" y="220">Travels immutable</text>
<rect x="197" y="210" width="10.948048452220727" height="12" rx="2" fill="#2563eb" opacity="0.62" />
<line class="p95" x1="209.60349932705248" y1="207" x2="209.60349932705248" y2="225" />
<text class="value" x="455" y="220">0.496 / 0.571</text>
<text class="row-label" x="42" y="247">Travels mutable</text>
<rect x="197" y="237" width="11.897173620457604" height="12" rx="2" fill="#2563eb" opacity="0.92" />
<line class="p95" x1="210.79542395693136" y1="234" x2="210.79542395693136" y2="252" />
<text class="value" x="455" y="247">0.539 / 0.625</text>
<text class="row-label" x="42" y="274">MST + UndoManager</text>
<rect x="197" y="264" width="228.62880215343208" height="12" rx="2" fill="#0f766e" opacity="0.92" />
<line class="p95" x1="440.26298788694487" y1="261" x2="440.26298788694487" y2="279" />
<text class="value" x="455" y="274">10.36 / 11.02</text>
<text class="row-label" x="42" y="301">mobx-keystone</text>
<rect x="197" y="291" width="209.09448183041727" height="12" rx="2" fill="#0f766e" opacity="0.92" />
<line class="p95" x1="443" y1="288" x2="443" y2="306" />
<text class="value" x="455" y="301">9.473 / 11.14</text>
<text class="row-label" x="42" y="328">Coaction history</text>
<rect x="197" y="318" width="30.41615074024226" height="12" rx="2" fill="#7c3aed" opacity="0.92" />
<line class="p95" x1="234.23660834454913" y1="315" x2="234.23660834454913" y2="333" />
<text class="value" x="455" y="328">1.378 / 1.687</text>
<text class="row-label" x="42" y="355">Redux-undo</text>
<rect x="197" y="345" width="1.5450874831763126" height="12" rx="2" fill="#6b7280" opacity="0.92" />
<line class="p95" x1="199.36177658142665" y1="342" x2="199.36177658142665" y2="360" />
<text class="value" x="455" y="355">0.070 / 0.107</text>
<text class="row-label" x="42" y="382">Zundo</text>
<rect x="197" y="372" width="2.626648721399731" height="12" rx="2" fill="#6b7280" opacity="0.92" />
<line class="p95" x1="200.00188425302827" y1="369" x2="200.00188425302827" y2="387" />
<text class="value" x="455" y="382">0.119 / 0.136</text>
<line class="axis" x1="197" y1="394" x2="443" y2="394" />
<text class="axis-label" x="197" y="412">0</text>
<text class="axis-label end" x="443" y="412">11.14</text></g>
<g><line class="section-line" x1="621" y1="148" x2="1158" y2="148" />
<text class="panel-title" x="621" y="173">Undo 50 steps</text>
<text class="panel-note" x="621" y="192">median / p95 · ms total · lower is better</text>
<line class="grid" x1="776" y1="202" x2="776" y2="394" />
<line class="grid" x1="899" y1="202" x2="899" y2="394" />
<line class="grid" x1="1022" y1="202" x2="1022" y2="394" />
<text class="row-label" x="621" y="220">Travels immutable</text>
<rect x="776" y="210" width="9.7947932618683" height="12" rx="2" fill="#2563eb" opacity="0.62" />
<line class="p95" x1="787.8667687595712" y1="207" x2="787.8667687595712" y2="225" />
<text class="value" x="1034" y="220">0.260 / 0.315</text>
<text class="row-label" x="621" y="247">Travels mutable</text>
<rect x="776" y="237" width="3.0514548238897397" height="12" rx="2" fill="#2563eb" opacity="0.92" />
<line class="p95" x1="780.5960183767228" y1="234" x2="780.5960183767228" y2="252" />
<text class="value" x="1034" y="247">0.081 / 0.122</text>
<text class="row-label" x="621" y="274">MST + UndoManager</text>
<rect x="776" y="264" width="163.42235834609494" height="12" rx="2" fill="#0f766e" opacity="0.92" />
<line class="p95" x1="955.5084226646247" y1="261" x2="955.5084226646247" y2="279" />
<text class="value" x="1034" y="274">4.338 / 4.765</text>
<text class="row-label" x="621" y="301">mobx-keystone</text>
<rect x="776" y="291" width="212.81071975497701" height="12" rx="2" fill="#0f766e" opacity="0.92" />
<line class="p95" x1="1022" y1="288" x2="1022" y2="306" />
<text class="value" x="1034" y="301">5.649 / 6.530</text>
<text class="row-label" x="621" y="328">Coaction history</text>
<rect x="776" y="318" width="21.84992343032159" height="12" rx="2" fill="#7c3aed" opacity="0.92" />
<line class="p95" x1="800.7883614088821" y1="315" x2="800.7883614088821" y2="333" />
<text class="value" x="1034" y="328">0.580 / 0.658</text>
<text class="row-label" x="621" y="355">Redux-undo</text>
<rect x="776" y="345" width="1.3562021439509953" height="12" rx="2" fill="#6b7280" opacity="0.92" />
<line class="p95" x1="778.9384379785605" y1="342" x2="778.9384379785605" y2="360" />
<text class="value" x="1034" y="355">0.036 / 0.078</text>
<text class="row-label" x="621" y="382">Zundo</text>
<rect x="776" y="372" width="1.808269525267994" height="12" rx="2" fill="#6b7280" opacity="0.92" />
<line class="p95" x1="778.9007656967841" y1="369" x2="778.9007656967841" y2="387" />
<text class="value" x="1034" y="382">0.048 / 0.077</text>
<line class="axis" x1="776" y1="394" x2="1022" y2="394" />
<text class="axis-label" x="776" y="412">0</text>
<text class="axis-label end" x="1022" y="412">6.530</text></g>
<g><line class="section-line" x1="42" y1="450" x2="579" y2="450" />
<text class="panel-title" x="42" y="475">Redo 50 steps</text>
<text class="panel-note" x="42" y="494">median / p95 · ms total · lower is better</text>
<line class="grid" x1="197" y1="504" x2="197" y2="696" />
<line class="grid" x1="320" y1="504" x2="320" y2="696" />
<line class="grid" x1="443" y1="504" x2="443" y2="696" />
<text class="row-label" x="42" y="522">Travels immutable</text>
<rect x="197" y="512" width="9.440180586907449" height="12" rx="2" fill="#2563eb" opacity="0.62" />
<line class="p95" x1="209.2629796839729" y1="509" x2="209.2629796839729" y2="527" />
<text class="value" x="455" y="522">0.204 / 0.265</text>
<text class="row-label" x="42" y="549">Travels mutable</text>
<rect x="197" y="539" width="3.2392776523702036" height="12" rx="2" fill="#2563eb" opacity="0.92" />
<line class="p95" x1="201.02595936794583" y1="536" x2="201.02595936794583" y2="554" />
<text class="value" x="455" y="549">0.070 / 0.087</text>
<text class="row-label" x="42" y="576">MST + UndoManager</text>
<rect x="197" y="566" width="141.0011286681716" height="12" rx="2" fill="#0f766e" opacity="0.92" />
<line class="p95" x1="346.0993227990971" y1="563" x2="346.0993227990971" y2="581" />
<text class="value" x="455" y="576">3.047 / 3.222</text>
<text class="row-label" x="42" y="603">mobx-keystone</text>
<rect x="197" y="593" width="218.04966139954854" height="12" rx="2" fill="#0f766e" opacity="0.92" />
<line class="p95" x1="443" y1="590" x2="443" y2="608" />
<text class="value" x="455" y="603">4.712 / 5.316</text>
<text class="row-label" x="42" y="630">Coaction history</text>
<rect x="197" y="620" width="21.934537246049658" height="12" rx="2" fill="#7c3aed" opacity="0.92" />
<line class="p95" x1="223.56207674943568" y1="617" x2="223.56207674943568" y2="635" />
<text class="value" x="455" y="630">0.474 / 0.574</text>
<text class="row-label" x="42" y="657">Redux-undo</text>
<rect x="197" y="647" width="1" height="12" rx="2" fill="#6b7280" opacity="0.92" />
<line class="p95" x1="198.6196388261851" y1="644" x2="198.6196388261851" y2="662" />
<text class="value" x="455" y="657">0.021 / 0.035</text>
<text class="row-label" x="42" y="684">Zundo</text>
<rect x="197" y="674" width="2.0823927765237022" height="12" rx="2" fill="#6b7280" opacity="0.92" />
<line class="p95" x1="199.36004514672686" y1="671" x2="199.36004514672686" y2="689" />
<text class="value" x="455" y="684">0.045 / 0.051</text>
<line class="axis" x1="197" y1="696" x2="443" y2="696" />
<text class="axis-label" x="197" y="714">0</text>
<text class="axis-label end" x="443" y="714">5.316</text></g>
<g><line class="section-line" x1="621" y1="450" x2="1158" y2="450" />
<text class="panel-title" x="621" y="475">Retained heap after updates</text>
<text class="panel-note" x="621" y="494">median / p95 · MB delta · lower is better</text>
<line class="grid" x1="776" y1="504" x2="776" y2="696" />
<line class="grid" x1="899" y1="504" x2="899" y2="696" />
<line class="grid" x1="1022" y1="504" x2="1022" y2="696" />
<text class="row-label" x="621" y="522">Travels immutable</text>
<rect x="776" y="512" width="5.518483412322275" height="12" rx="2" fill="#2563eb" opacity="0.62" />
<line class="p95" x1="782.0625592417061" y1="509" x2="782.0625592417061" y2="527" />
<text class="value" x="1034" y="522">0.071 / 0.078</text>
<text class="row-label" x="621" y="549">Travels mutable</text>
<rect x="776" y="539" width="5.518483412322275" height="12" rx="2" fill="#2563eb" opacity="0.92" />
<line class="p95" x1="781.6739336492891" y1="536" x2="781.6739336492891" y2="554" />
<text class="value" x="1034" y="549">0.071 / 0.073</text>
<text class="row-label" x="621" y="576">MST + UndoManager</text>
<rect x="776" y="566" width="16.866350710900477" height="12" rx="2" fill="#0f766e" opacity="0.92" />
<line class="p95" x1="794.1876777251185" y1="563" x2="794.1876777251185" y2="581" />
<text class="value" x="1034" y="576">0.217 / 0.234</text>
<text class="row-label" x="621" y="603">mobx-keystone</text>
<rect x="776" y="593" width="243.82369668246443" height="12" rx="2" fill="#0f766e" opacity="0.92" />
<line class="p95" x1="1022" y1="590" x2="1022" y2="608" />
<text class="value" x="1034" y="603">3.137 / 3.165</text>
<text class="row-label" x="621" y="630">Coaction history</text>
<rect x="776" y="620" width="1" height="12" rx="2" fill="#7c3aed" opacity="0.92" />
<line class="p95" x1="777.8654028436019" y1="617" x2="777.8654028436019" y2="635" />
<text class="value" x="1034" y="630">0.003 / 0.024</text>
<text class="row-label" x="621" y="657">Redux-undo</text>
<rect x="776" y="647" width="1" height="12" rx="2" fill="#6b7280" opacity="0.92" />
<line class="p95" x1="776.8549763033176" y1="644" x2="776.8549763033176" y2="662" />
<text class="value" x="1034" y="657">0.010 / 0.011</text>
<text class="row-label" x="621" y="684">Zundo</text>
<rect x="776" y="674" width="1.1658767772511847" height="12" rx="2" fill="#6b7280" opacity="0.92" />
<line class="p95" x1="777.7876777251184" y1="671" x2="777.7876777251184" y2="689" />
<text class="value" x="1034" y="684">0.015 / 0.023</text>
<line class="axis" x1="776" y1="696" x2="1022" y2="696" />
<text class="axis-label" x="776" y="714">0</text>
<text class="axis-label end" x="1022" y="714">3.165</text></g>
<g><line class="section-line" x1="42" y1="752" x2="1158" y2="752" />
<text class="panel-title" x="42" y="777">Persisted current state + history</text>
<text class="panel-note" x="42" y="796">median / p95 · KB JSON · lower is better</text>
<line class="grid" x1="222" y1="806" x2="222" y2="998" />
<line class="grid" x1="622" y1="806" x2="622" y2="998" />
<line class="grid" x1="1022" y1="806" x2="1022" y2="998" />
<text class="row-label" x="42" y="824">Travels immutable</text>
<rect x="222" y="814" width="9.538138532836044" height="12" rx="2" fill="#2563eb" opacity="0.62" />
<line class="p95" x1="231.53813853283606" y1="811" x2="231.53813853283606" y2="829" />
<text class="value" x="1034" y="824">117.3 / 117.3</text>
<text class="row-label" x="42" y="851">Travels mutable</text>
<rect x="222" y="841" width="9.538138532836044" height="12" rx="2" fill="#2563eb" opacity="0.92" />
<line class="p95" x1="231.53813853283606" y1="838" x2="231.53813853283606" y2="856" />
<text class="value" x="1034" y="851">117.3 / 117.3</text>
<text class="row-label" x="42" y="878">MST + UndoManager</text>
<rect x="222" y="868" width="9.693307534149982" height="12" rx="2" fill="#0f766e" opacity="0.92" />
<line class="p95" x1="231.69330753415" y1="865" x2="231.69330753415" y2="883" />
<text class="value" x="1034" y="878">119.3 / 119.3</text>
<text class="row-label" x="42" y="905">mobx-keystone</text>
<rect x="222" y="895" width="10.311219921781491" height="12" rx="2" fill="#0f766e" opacity="0.92" />
<line class="p95" x1="232.3112199217815" y1="892" x2="232.3112199217815" y2="910" />
<text class="value" x="1034" y="905">126.9 / 126.9</text>
<text class="row-label" x="42" y="932">Coaction history</text>
<rect x="222" y="922" width="9.496440419858542" height="12" rx="2" fill="#7c3aed" opacity="0.92" />
<line class="p95" x1="231.49644041985854" y1="919" x2="231.49644041985854" y2="937" />
<text class="value" x="1034" y="932">116.8 / 116.8</text>
<text class="row-label" x="42" y="959">Redux-undo</text>
<rect x="222" y="949" width="800" height="12" rx="2" fill="#6b7280" opacity="0.92" />
<line class="p95" x1="1022" y1="946" x2="1022" y2="964" />
<text class="value" x="1034" y="959">9,842 / 9,842</text>
<text class="row-label" x="42" y="986">Zundo</text>
<rect x="222" y="976" width="792.1521387758718" height="12" rx="2" fill="#6b7280" opacity="0.92" />
<line class="p95" x1="1014.1521387758718" y1="973" x2="1014.1521387758718" y2="991" />
<text class="value" x="1034" y="986">9,746 / 9,746</text>
<line class="axis" x1="222" y1="998" x2="1022" y2="998" />
<text class="axis-label" x="222" y="1016">0</text>
<text class="axis-label end" x="1022" y="1016">9,842</text></g>
  <text class="subtitle" x="42" y="1090">Generated 2026-07-19 on Apple M1 Max. Store/model creation is excluded; heap deltas are GC-sensitive.</text>
</svg>
